<svg xmlns="http://www.w3.org/2000/svg" xmlns:xlink="http://www.w3.org/1999/xlink" xmlns:serif="http://www.serif.com/" viewBox="0 0 24 30" version="1.1" xml:space="preserve" style="" stroke="#c4c4c4" x="0px" y="0px" fill-rule="evenodd" clip-rule="evenodd" stroke-linejoin="round" stroke-miterlimit="2"><g><g><path d="M12,1.5c-5.795,-0 -10.5,4.705 -10.5,10.5c-0,5.795 4.705,10.5 10.5,10.5c5.795,0 10.5,-4.705 10.5,-10.5c0,-5.795 -4.705,-10.5 -10.5,-10.5Zm-0,1c5.243,-0 9.5,4.257 9.5,9.5c0,5.243 -4.257,9.5 -9.5,9.5c-5.243,0 -9.5,-4.257 -9.5,-9.5c-0,-5.243 4.257,-9.5 9.5,-9.5Z"/><path d="M12,1.5c-1.465,-0 -2.831,0.772 -3.93,2.114c-1.548,1.893 -2.57,4.943 -2.57,8.386c-0,3.443 1.022,6.493 2.57,8.386c1.099,1.342 2.465,2.114 3.93,2.114c1.465,-0 2.831,-0.772 3.93,-2.114c1.548,-1.893 2.57,-4.943 2.57,-8.386c-0,-3.443 -1.022,-6.493 -2.57,-8.386c-1.099,-1.342 -2.465,-2.114 -3.93,-2.114Zm-0,1c1.184,-0 2.268,0.662 3.156,1.747c1.43,1.748 2.344,4.573 2.344,7.753c-0,3.18 -0.914,6.005 -2.344,7.753c-0.888,1.085 -1.972,1.747 -3.156,1.747c-1.184,0 -2.268,-0.662 -3.156,-1.747c-1.43,-1.748 -2.344,-4.573 -2.344,-7.753c-0,-3.18 0.914,-6.005 2.344,-7.753c0.888,-1.085 1.972,-1.747 3.156,-1.747Z"/><path d="M11.5,2l-0,20c-0,0.276 0.224,0.5 0.5,0.5c0.276,-0 0.5,-0.224 0.5,-0.5l-0,-20c-0,-0.276 -0.224,-0.5 -0.5,-0.5c-0.276,0 -0.5,0.224 -0.5,0.5Z"/><path d="M21.541,8.5l-19.082,-0c-0.276,0 -0.5,0.224 -0.5,0.5c-0,0.276 0.224,0.5 0.5,0.5l19.082,-0c0.276,0 0.5,-0.224 0.5,-0.5c0,-0.276 -0.224,-0.5 -0.5,-0.5Z"/><path d="M21.541,14.5l-19.082,-0c-0.276,-0 -0.5,0.224 -0.5,0.5c-0,0.276 0.224,0.5 0.5,0.5l19.082,-0c0.276,-0 0.5,-0.224 0.5,-0.5c0,-0.276 -0.224,-0.5 -0.5,-0.5Z"/></g></g><text x="0" y="39" fill="#000000" font-size="5px" font-weight="bold" font-family="'Helvetica Neue', Helvetica, Arial-Unicode, Arial, Sans-serif">Created by Saktianto Adhi Pambudi</text><text x="0" y="44" fill="#000000" font-size="5px" font-weight="bold" font-family="'Helvetica Neue', Helvetica, Arial-Unicode, Arial, Sans-serif">from the Noun Project</text></svg>